<svg xmlns="http://www.w3.org/2000/svg" width="32" height="32" fill="none" viewBox="0 0 32 32" id="dinner">
  <path fill="#000" fill-rule="evenodd" d="M16 25C20.9706 25 25 20.9706 25 16C25 11.0294 20.9706 7 16 7C11.0294 7 7 11.0294 7 16C7 20.9706 11.0294 25 16 25ZM20.45 16C20.45 18.4577 18.4577 20.45 16 20.45C13.5423 20.45 11.55 18.4577 11.55 16C11.55 13.5423 13.5423 11.55 16 11.55C18.4577 11.55 20.45 13.5423 20.45 16ZM21.25 16C21.25 18.8995 18.8995 21.25 16 21.25C13.1005 21.25 10.75 18.8995 10.75 16C10.75 13.1005 13.1005 10.75 16 10.75C18.8995 10.75 21.25 13.1005 21.25 16ZM4 15.3411V16.5V23.275C4 23.6754 4.32461 24 4.72503 24C5.14443 24 5.47635 23.6452 5.44845 23.2267L5 16.5V15.3411C5 14.6505 5.35625 14.0088 5.94235 13.6436L6.05765 13.5718C6.64375 13.2066 7 12.5649 7 11.8743V8.5C7 8.22386 6.77614 8 6.5 8C6.22386 8 6 8.22386 6 8.5V11.1538C6 11.6198 5.68131 12.0113 5.25 12.1223V8.5C5.25 8.36193 5.13807 8.25 5 8.25C4.86193 8.25 4.75 8.36193 4.75 8.5V12.1538H4.25V8.5C4.25 8.36193 4.13807 8.25 4 8.25C3.86193 8.25 3.75 8.36193 3.75 8.5V12.1223C3.31869 12.0113 3 11.6198 3 11.1538V8.5C3 8.22386 2.77614 8 2.5 8C2.22386 8 2 8.22386 2 8.5V11.8743C2 12.5649 2.35625 13.2066 2.94235 13.5718L3.05765 13.6436C3.64375 14.0088 4 14.6505 4 15.3411ZM27.5433 16.2213L27.4078 8.15095C26.9404 8.26778 25.3749 9.20244 25.6553 12.0064C25.884 14.2938 26.4635 15.3559 26.6693 15.7331C26.7158 15.8183 26.7432 15.8686 26.7432 15.8901V23.3657C26.7432 23.716 27.0272 24 27.3775 24C27.7442 24 28.0345 23.69 28.0105 23.324L27.5433 16.2213Z" clip-rule="evenodd"></path>
</svg>
